<svg xmlns="http://www.w3.org/2000/svg" version="1.1" xmlns:xlink="http://www.w3.org/1999/xlink" xmlns:svgjs="http://svgjs.dev/svgjs" width="340" height="215" preserveAspectRatio="none" viewBox="0 0 340 215"><g mask="url(&quot;#SvgjsMask1728&quot;)" fill="none"><rect width="340" height="215" x="0" y="0" fill="url(&quot;#SvgjsLinearGradient1729&quot;)"></rect><path d="M340 0L258.13 0L340 5.26z" fill="rgba(255, 255, 255, .1)"></path><path d="M258.13 0L340 5.26L340 46.3L255.9 0z" fill="rgba(255, 255, 255, .075)"></path><path d="M255.89999999999998 0L340 46.3L340 144.78L161.92999999999998 0z" fill="rgba(255, 255, 255, .05)"></path><path d="M161.93 0L340 144.78L340 157.59L67.74000000000001 0z" fill="rgba(255, 255, 255, .025)"></path><path d="M0 215L19.57 215L0 127z" fill="rgba(0, 0, 0, .1)"></path><path d="M0 127L19.57 215L52.98 215L0 89.18z" fill="rgba(0, 0, 0, .075)"></path><path d="M0 89.18L52.98 215L80 215L0 47.480000000000004z" fill="rgba(0, 0, 0, .05)"></path><path d="M0 47.48000000000002L80 215L143.73 215L0 43.45000000000002z" fill="rgba(0, 0, 0, .025)"></path></g><defs><mask id="SvgjsMask1728"><rect width="340" height="215" fill="#ffffff"></rect></mask><linearGradient x1="9.19%" y1="-14.53%" x2="90.81%" y2="114.53%" gradientUnits="userSpaceOnUse" id="SvgjsLinearGradient1729"><stop stop-color="rgba(4, 95, 237, 1)" offset="0.01"></stop><stop stop-color="rgba(0, 198, 255, 1)" offset="1"></stop></linearGradient></defs></svg>